<svg xmlns="http://www.w3.org/2000/svg">
    <defs>
        <symbol id="close" viewBox="0 0 24 24">
            <path d="M13.41 12L17.71 7.71C17.8983 7.5217 18.0041 7.2663 18.0041 7C18.0041 6.7337 17.8983 6.47831 17.71 6.29C17.5217 6.1017 17.2663 5.99591 17 5.99591C16.7337 5.99591 16.4783 6.1017 16.29 6.29L12 10.59L7.71 6.29C7.5217 6.1017 7.2663 5.99591 7 5.99591C6.7337 5.99591 6.4783 6.1017 6.29 6.29C6.1017 6.47831 5.99591 6.7337 5.99591 7C5.99591 7.2663 6.1017 7.5217 6.29 7.71L10.59 12L6.29 16.29C6.19627 16.383 6.12188 16.4936 6.07111 16.6154C6.02034 16.7373 5.9942 16.868 5.9942 17C5.9942 17.132 6.02034 17.2627 6.07111 17.3846C6.12188 17.5064 6.19627 17.617 6.29 17.71C6.38296 17.8037 6.49356 17.8781 6.61542 17.9289C6.73728 17.9797 6.86799 18.0058 7 18.0058C7.13201 18.0058 7.26272 17.9797 7.38458 17.9289C7.50644 17.8781 7.61704 17.8037 7.71 17.71L12 13.41L16.29 17.71C16.383 17.8037 16.4936 17.8781 16.6154 17.9289C16.7373 17.9797 16.868 18.0058 17 18.0058C17.132 18.0058 17.2627 17.9797 17.3846 17.9289C17.5064 17.8781 17.617 17.8037 17.71 17.71C17.8037 17.617 17.8781 17.5064 17.9289 17.3846C17.9797 17.2627 18.0058 17.132 18.0058 17C18.0058 16.868 17.9797 16.7373 17.9289 16.6154C17.8781 16.4936 17.8037 16.383 17.71 16.29L13.41 12Z"/> 
        </symbol> 
    </defs>
    <defs>
        <symbol id="chevron" viewBox="0 0 24 24">
            <path d="M5.51414 9.45842C5.51369 9.22477 5.59506 8.99834 5.74414 8.81842C5.82809 8.71717 5.93119 8.63346 6.04754 8.57211C6.16389 8.51076 6.29119 8.47296 6.42217 8.46089C6.55315 8.44881 6.68522 8.46269 6.81082 8.50174C6.93643 8.54078 7.05309 8.60422 7.15414 8.68842L12.5141 13.1684L17.8841 8.84843C17.9864 8.76536 18.1041 8.70333 18.2305 8.6659C18.3568 8.62846 18.4893 8.61637 18.6203 8.63031C18.7514 8.64425 18.8783 8.68395 18.994 8.74712C19.1096 8.81029 19.2116 8.8957 19.2941 8.99843C19.3852 9.10189 19.4538 9.22306 19.4958 9.35432C19.5378 9.48558 19.5522 9.62411 19.5381 9.7612C19.5241 9.89829 19.4818 10.031 19.414 10.151C19.3462 10.271 19.2543 10.3756 19.1441 10.4584L13.1441 15.2884C12.9652 15.4355 12.7408 15.5159 12.5091 15.5159C12.2775 15.5159 12.0531 15.4355 11.8741 15.2884L5.87414 10.2884C5.75313 10.1881 5.65746 10.0607 5.59491 9.91646C5.53236 9.77225 5.50469 9.61533 5.51414 9.45842Z"/>
        </symbol>
    </defs>
    <symbol id="eye-open" viewBox="0 0 24 24">
        <path d="M21.87 11.5C21.23 10.39 17.71 4.81999 11.73 4.99999C6.2 5.13999 3 9.99999 2.13 11.5C2.04223 11.652 1.99603 11.8245 1.99603 12C1.99603 12.1755 2.04223 12.348 2.13 12.5C2.76 13.59 6.13 19 12.02 19H12.27C17.8 18.86 21.01 14 21.87 12.5C21.9578 12.348 22.004 12.1755 22.004 12C22.004 11.8245 21.9578 11.652 21.87 11.5ZM12.22 17C7.91 17.1 5.1 13.41 4.22 12C5.22 10.39 7.83 7.09999 11.83 6.99999C16.12 6.88999 18.94 10.59 19.83 12C18.8 13.61 16.22 16.9 12.22 17Z"/>
        <path d="M12 8.5C11.3078 8.5 10.6311 8.70527 10.0555 9.08986C9.47993 9.47444 9.03133 10.0211 8.76642 10.6606C8.50152 11.3001 8.4322 12.0039 8.56725 12.6828C8.7023 13.3618 9.03564 13.9854 9.52513 14.4749C10.0146 14.9644 10.6383 15.2977 11.3172 15.4327C11.9961 15.5678 12.6999 15.4985 13.3394 15.2336C13.9789 14.9687 14.5256 14.5201 14.9101 13.9445C15.2947 13.3689 15.5 12.6922 15.5 12C15.5 11.0717 15.1313 10.1815 14.4749 9.52513C13.8185 8.86875 12.9283 8.5 12 8.5ZM12 13.5C11.7033 13.5 11.4133 13.412 11.1666 13.2472C10.92 13.0824 10.7277 12.8481 10.6142 12.574C10.5007 12.2999 10.4709 11.9983 10.5288 11.7074C10.5867 11.4164 10.7296 11.1491 10.9393 10.9393C11.1491 10.7296 11.4164 10.5867 11.7074 10.5288C11.9983 10.4709 12.2999 10.5006 12.574 10.6142C12.8481 10.7277 13.0824 10.92 13.2472 11.1666C13.412 11.4133 13.5 11.7033 13.5 12C13.5 12.3978 13.342 12.7794 13.0607 13.0607C12.7794 13.342 12.3978 13.5 12 13.5Z" />
    </symbol>
    <symbol id="eye-closed" viewBox="0 0 24 24">
        <path d="M4.71 3.29C4.61676 3.19676 4.50607 3.1228 4.38425 3.07234C4.26243 3.02188 4.13186 2.99591 4 2.99591C3.86814 2.99591 3.73757 3.02188 3.61575 3.07234C3.49393 3.1228 3.38324 3.19676 3.29 3.29C3.10169 3.47831 2.99591 3.7337 2.99591 4C2.99591 4.2663 3.10169 4.5217 3.29 4.71L8.92 10.34C8.5638 11.0026 8.43058 11.7624 8.54009 12.5067C8.64959 13.2509 8.99599 13.9401 9.52794 14.4721C10.0599 15.004 10.7491 15.3504 11.4934 15.4599C12.2376 15.5694 12.9974 15.4362 13.66 15.08L19.29 20.71C19.383 20.8037 19.4936 20.8781 19.6154 20.9289C19.7373 20.9797 19.868 21.0058 20 21.0058C20.132 21.0058 20.2627 20.9797 20.3846 20.9289C20.5064 20.8781 20.617 20.8037 20.71 20.71C20.8037 20.617 20.8781 20.5064 20.9289 20.3846C20.9797 20.2627 21.0058 20.132 21.0058 20C21.0058 19.868 20.9797 19.7373 20.9289 19.6154C20.8781 19.4936 20.8037 19.383 20.71 19.29L4.71 3.29ZM12 13.5C11.6022 13.5 11.2206 13.342 10.9393 13.0607C10.658 12.7794 10.5 12.3978 10.5 12V11.93L12.06 13.49L12 13.5Z"/>
        <path d="M12.22 17C7.92 17.1 5.1 13.41 4.22 12C4.84647 11.0007 5.59936 10.0865 6.46 9.27999L5 7.87C3.87133 8.93347 2.90441 10.1564 2.13 11.5C2.04223 11.652 1.99603 11.8245 1.99603 12C1.99603 12.1755 2.04223 12.348 2.13 12.5C2.76 13.59 6.13 19 12.02 19H12.27C13.3775 18.9671 14.4708 18.7404 15.5 18.33L13.92 16.75C13.3644 16.8962 12.7942 16.98 12.22 17Z"/>
        <path d="M21.87 11.5C21.23 10.39 17.7 4.81999 11.73 4.99999C10.6225 5.03285 9.52924 5.25961 8.5 5.66999L10.08 7.24999C10.6356 7.10382 11.2058 7.01997 11.78 6.99999C16.07 6.88999 18.89 10.59 19.78 12C19.1381 13.0023 18.3682 13.9167 17.49 14.72L19 16.13C20.1428 15.0693 21.1234 13.8462 21.91 12.5C21.9918 12.3445 22.0311 12.1702 22.0241 11.9946C22.0171 11.8191 21.9639 11.6485 21.87 11.5Z"/>
    </symbol>
    <symbol id="check-mark" viewBox="6 5 20 22">
        <path d="M5 16.577l2.194-2.195 5.486 5.484L24.804 7.743 27 9.937l-14.32 14.32z"/>
    </symbol>        
    <symbol id="edit" viewBox="0 0 24 24">
        <path d="M19 20H5C4.73478 20 4.48043 20.1054 4.29289 20.2929C4.10536 20.4804 4 20.7348 4 21C4 21.2652 4.10536 21.5196 4.29289 21.7071C4.48043 21.8946 4.73478 22 5 22H19C19.2652 22 19.5196 21.8946 19.7071 21.7071C19.8946 21.5196 20 21.2652 20 21C20 20.7348 19.8946 20.4804 19.7071 20.2929C19.5196 20.1054 19.2652 20 19 20Z"/>
        <path d="M5.00001 18H5.09001L9.26001 17.62C9.7168 17.5745 10.144 17.3732 10.47 17.05L19.47 8.05C19.8193 7.68097 20.0081 7.18851 19.995 6.68054C19.9819 6.17256 19.7679 5.69051 19.4 5.34L16.66 2.6C16.3024 2.2641 15.8338 2.07136 15.3433 2.05845C14.8529 2.04555 14.3748 2.21337 14 2.53L5.00001 11.53C4.67677 11.856 4.47551 12.2832 4.43001 12.74L4.00001 16.91C3.98654 17.0565 4.00554 17.2041 4.05567 17.3424C4.10579 17.4807 4.18581 17.6062 4.29001 17.71C4.38345 17.8027 4.49426 17.876 4.6161 17.9258C4.73794 17.9755 4.8684 18.0008 5.00001 18ZM15.27 4L18 6.73L16 8.68L13.32 6L15.27 4ZM6.37001 12.91L12 7.32L14.7 10.02L9.10001 15.62L6.10001 15.9L6.37001 12.91Z"/>
    </symbol>        
  </svg>