<svg xmlns="http://www.w3.org/2000/svg">
    <defs>
        <symbol id="close" viewBox="-6 -6 24 24">
            <path d="M7.40994 6.00019L11.7099 1.71019C11.8982 1.52188 12.004 1.26649 12.004 1.00019C12.004 0.733884 11.8982 0.478489 11.7099 0.290185C11.5216 0.101882 11.2662 -0.00390625 10.9999 -0.00390625C10.7336 -0.00390625 10.4782 0.101882 10.2899 0.290185L5.99994 4.59019L1.70994 0.290185C1.52164 0.101882 1.26624 -0.00390625 0.999939 -0.00390625C0.733637 -0.00390625 0.478243 0.101882 0.289939 0.290185C0.101635 0.478489 -0.00415277 0.733884 -0.00415277 1.00019C-0.00415278 1.26649 0.101635 1.52188 0.289939 1.71019L4.58994 6.00019L0.289939 10.2902C0.196211 10.3831 0.121816 10.4937 0.0710478 10.6156C0.0202791 10.7375 -0.00585938 10.8682 -0.00585938 11.0002C-0.00585938 11.1322 0.0202791 11.2629 0.0710478 11.3848C0.121816 11.5066 0.196211 11.6172 0.289939 11.7102C0.382902 11.8039 0.493503 11.8783 0.615362 11.9291C0.737221 11.9798 0.867927 12.006 0.999939 12.006C1.13195 12.006 1.26266 11.9798 1.38452 11.9291C1.50638 11.8783 1.61698 11.8039 1.70994 11.7102L5.99994 7.41019L10.2899 11.7102C10.3829 11.8039 10.4935 11.8783 10.6154 11.9291C10.7372 11.9798 10.8679 12.006 10.9999 12.006C11.132 12.006 11.2627 11.9798 11.3845 11.9291C11.5064 11.8783 11.617 11.8039 11.7099 11.7102C11.8037 11.6172 11.8781 11.5066 11.9288 11.3848C11.9796 11.2629 12.0057 11.1322 12.0057 11.0002C12.0057 10.8682 11.9796 10.7375 11.9288 10.6156C11.8781 10.4937 11.8037 10.3831 11.7099 10.2902L7.40994 6.00019Z"/>
        </symbol> 
        <symbol viewBox="-4 -4 16 16" fill="none">
            <path d="M0.676105 1.30553C0.675801 1.14977 0.730051 0.998809 0.829438 0.878868C0.885405 0.811362 0.954139 0.755561 1.0317 0.71466C1.10927 0.673759 1.19414 0.648561 1.28146 0.640511C1.36877 0.63246 1.45682 0.641715 1.54056 0.667744C1.62429 0.693774 1.70207 0.736067 1.76944 0.792201L5.34277 3.77887L8.92277 0.898869C8.99096 0.843492 9.06943 0.802137 9.15365 0.777183C9.23788 0.752228 9.32621 0.744166 9.41356 0.753458C9.50091 0.762751 9.58557 0.789216 9.66266 0.831332C9.73975 0.873447 9.80776 0.930384 9.86277 0.998869C9.92346 1.06785 9.96924 1.14862 9.99723 1.23613C10.0252 1.32364 10.0348 1.41599 10.0254 1.50738C10.016 1.59878 9.98787 1.68725 9.94267 1.76724C9.89747 1.84722 9.83622 1.91701 9.76277 1.9722L5.76277 5.1922C5.64348 5.29026 5.49385 5.34386 5.33944 5.34386C5.18502 5.34386 5.03539 5.29026 4.91611 5.1922L0.916105 1.85887C0.835427 1.79199 0.771651 1.70703 0.729952 1.61089C0.688253 1.51475 0.669805 1.41014 0.676105 1.30553Z" fill="#FFFEFE"/>
        </symbol>
            
    </defs>
  </svg>